<?xml version="1.0" encoding="utf-8"?>
<!-- Generator: Adobe Illustrator 25.2.3, SVG Export Plug-In . SVG Version: 6.00 Build 0)  -->
<svg version="1.1" id="Layer_1" xmlns="http://www.w3.org/2000/svg" xmlns:xlink="http://www.w3.org/1999/xlink" x="0px" y="0px"
	 viewBox="0 0 307 308.2" style="enable-background:new 0 0 307 308.2;" xml:space="preserve">
<style type="text/css">
	.st0{fill:none;stroke:#262626;stroke-width:11.9996;stroke-miterlimit:9.9996;}
</style>
<g id="Layer_2_1_">
	<g id="Layer_1-2">
		<line class="st0" x1="153.5" y1="0" x2="153.5" y2="308.2"/>
		<line class="st0" x1="132.4" y1="23.8" x2="153.5" y2="44.9"/>
		<line class="st0" x1="174.6" y1="23.8" x2="153.5" y2="44.9"/>
		<line class="st0" x1="90.5" y1="55.3" x2="153.5" y2="118.2"/>
		<line class="st0" x1="92.5" y1="87" x2="122.3" y2="87"/>
		<line class="st0" x1="122.3" y1="57.2" x2="122.3" y2="87"/>
		<line class="st0" x1="216.5" y1="55.3" x2="153.5" y2="118.2"/>
		<line class="st0" x1="214.6" y1="87" x2="184.8" y2="87"/>
		<line class="st0" x1="184.8" y1="57.2" x2="184.8" y2="87"/>
		<line class="st0" x1="301.6" y1="121.3" x2="153.5" y2="269.3"/>
		<line class="st0" x1="269.8" y1="123.2" x2="269.8" y2="153"/>
		<line class="st0" x1="299.6" y1="153" x2="269.8" y2="153"/>
		<line class="st0" x1="218" y1="115.8" x2="218" y2="204.9"/>
		<line class="st0" x1="196.9" y1="139.6" x2="218" y2="160.7"/>
		<line class="st0" x1="239" y1="139.6" x2="218" y2="160.7"/>
		<line class="st0" x1="307" y1="204.9" x2="218" y2="204.9"/>
		<line class="st0" x1="283.2" y1="226" x2="262.1" y2="204.9"/>
		<line class="st0" x1="283.2" y1="183.8" x2="262.1" y2="204.9"/>
		<line class="st0" x1="5.5" y1="121.3" x2="153.5" y2="269.3"/>
		<line class="st0" x1="37.2" y1="123.2" x2="37.2" y2="153"/>
		<line class="st0" x1="7.4" y1="153" x2="37.2" y2="153"/>
		<line class="st0" x1="89.1" y1="115.8" x2="89.1" y2="204.9"/>
		<line class="st0" x1="110.2" y1="139.6" x2="89.1" y2="160.7"/>
		<line class="st0" x1="68" y1="139.6" x2="89.1" y2="160.7"/>
		<line class="st0" x1="0" y1="204.9" x2="89.1" y2="204.9"/>
		<line class="st0" x1="23.8" y1="226" x2="44.9" y2="204.9"/>
		<line class="st0" x1="23.8" y1="183.8" x2="44.9" y2="204.9"/>
	</g>
</g>
</svg>
