<svg enable-background="new 0 0 220.6 256.9" viewBox="0 0 220.6 256.9" xmlns="http://www.w3.org/2000/svg"><path d="m110.3 45v211.9" fill="none" stroke="#38682e" stroke-miterlimit="9.9998" stroke-width="5.9999"/><path d="m110.6 200.9 56.3-43.2" fill="none" stroke="#38682e" stroke-miterlimit="9.9998" stroke-width="5.9999"/><path d="m110.6 127.9 46.1-46.1" fill="none" stroke="#38682e" stroke-miterlimit="9.9998" stroke-width="5.9999"/><g clip-rule="evenodd" fill="#38682e" fill-rule="evenodd"><path d="m215 135.5c3.1-6.2 5.6-18.5 5.6-18.5s-12.6-.7-19.3.8l1.5-3.8c-2.3.1-15 5.1-15 5.1l.8-4.3c-4.8 1.3-14.2 7-14.2 7l-.1-4c-5.2 3.2-11.4 9.9-11.4 9.9l-1-2.9c-3.5 3.3-6.8 6.9-9.6 10.7l-1.5-3.4c-5.4 4.7-11.2 14.4-11.2 14.4l-1.9-2.8c-6.8 8.3-18.9 31-8.7 44.3 10.3 13.3 35.3 7.2 45.1 2.7l-2.2-2.6s10.9-3.2 16.7-7.3l-2.9-2.3c4.5-1.8 8.8-4 12.8-6.7l-2.5-1.7s8-4.3 12.5-8.5l-3.8-1.1s7.9-7.8 10.4-12l-4.4-.3s7.9-11 8.7-13.3z"/><path d="m135.9 77.1s6.5-6.9 11.8-10.1l.6 3.6s8.8-8.1 11.5-9.1v3.9s10.7-5 13.9-5.5l-.9 4s12.3-3.4 14.5-3.4l-1.5 3.4c6.3-1.1 17.8 0 17.8 0-46.1 18.7-66.8 42.7-75 50-9-12.6-.5-32.3 6-39.7"/><path d="m123.3 30.9s9.5-10 12.6-10.7l-.6 4s8.1-5.4 13-5.8l-1.2 3.6c5.2-1 10.5-1.7 15.8-2 0 0-24.4 10-49.4 40.9-7-8.7.6-25.8 9.2-33.7"/><path d="m126.3 31.3c-.6 10.2-6.2 22.9-16 22.9v-54.2s3.8 6.8 6.2 11.8l1.8-2.8c2.3 3.6 3.1 13 3.1 13l2.4-2.6c1.2 2.5-.4 13.4-.4 13.4"/><path d="m97.3 32.8s-1.6-10.9-.4-13.4l2.4 2.6s.8-9.5 3.1-13l1.7 2.8c2.4-5 6.2-11.8 6.2-11.8v54.1c-9.8 0-15.3-12.7-16-22.9"/></g><path d="m110 200.9-56.2-43.2" fill="none" stroke="#38682e" stroke-miterlimit="9.9998" stroke-width="5.9999"/><path d="m110 127.9-46.1-46.1" fill="none" stroke="#38682e" stroke-miterlimit="9.9998" stroke-width="5.9999"/><path clip-rule="evenodd" d="m83.1 143.7-1.9 2.8s-5.8-9.7-11.2-14.4l-1.5 3.4c-2.9-3.9-6.1-7.5-9.6-10.7l-1 2.9s-6.2-6.7-11.4-9.9l-.1 4s-9.5-5.7-14.2-7l.8 4.3s-12.7-4.9-15-5.1l1.5 3.8c-6.8-1.5-19.3-.8-19.3-.8s2.5 12.3 5.6 18.5l-4.3-.5c.7 2.2 8.7 13.3 8.7 13.3l-4.4.3c2.4 4.3 10.4 12 10.4 12l-3.8 1.1c4.4 4.2 12.5 8.5 12.5 8.5l-2.5 1.7c4.1 2.6 8.3 4.8 12.8 6.7l-2.9 2.3c5.9 4 16.7 7.3 16.7 7.3l-2.2 2.6c9.8 4.5 34.8 10.6 45.1-2.7 10.2-13.4-1.9-36.1-8.8-44.4z" fill="#38682e" fill-rule="evenodd"/><path clip-rule="evenodd" d="m85.9 74.3c6.6 7.4 15 27.1 6 39.7-8.2-7.3-28.9-31.3-75-50 0 0 11.5-1.1 17.8 0l-1.5-3.5c2.2 0 14.5 3.4 14.5 3.4l-.9-4c3.1.5 13.9 5.5 13.9 5.5v-3.9c2.7 1 11.5 9.1 11.5 9.1l.6-3.6c5.4 3.2 11.8 10.1 11.8 10.1" fill="#38682e" fill-rule="evenodd"/><path clip-rule="evenodd" d="m98.1 27.1c8.6 7.9 16.2 25 9.2 33.7-25-30.9-49.4-40.9-49.4-40.9 5.3.3 10.6 1 15.8 2l-1.3-3.6c4.9.5 13 5.8 13 5.8l-.6-4c3.1.7 12.6 10.7 12.6 10.7" fill="#38682e" fill-rule="evenodd"/></svg>